<svg xmlns="http://www.w3.org/2000/svg" xmlns:xlink="http://www.w3.org/1999/xlink" width="500" zoomAndPan="magnify" viewBox="0 0 375 374.999991" height="500" preserveAspectRatio="xMidYMid meet" version="1.2"><defs><clipPath id="b90f8e4414"><path d="M 53 151 L 274 151 L 274 362 L 53 362 Z M 53 151 "/></clipPath><clipPath id="006fc2bc2d"><path d="M 277.015625 357.832031 L 61.417969 365.933594 L 53.648438 159.214844 L 269.25 151.117188 Z M 277.015625 357.832031 "/></clipPath><clipPath id="4432762ffa"><path d="M 204.921875 354.3125 C 194.054688 358.480469 181.554688 361.421875 169.226562 361.882812 C 156.902344 362.347656 144.960938 360.679688 133.890625 357.332031 C 133.65625 357.226562 133.421875 357.234375 133.183594 357.125 C 91.574219 343.640625 59.851562 305.097656 57.578125 260.050781 L 53.789062 159.210938 L 269.25 151.117188 L 273.035156 251.878906 C 274.160156 297.28125 245.882812 338.078125 204.921875 354.3125 Z M 204.921875 354.3125 "/></clipPath><clipPath id="618b8ac5e0"><path d="M 164 221 L 350 221 L 350 375 L 164 375 Z M 164 221 "/></clipPath><clipPath id="e2105873e7"><path d="M 164.261719 228.101562 L 349.378906 221.148438 L 356.335938 406.265625 L 171.214844 413.222656 Z M 164.261719 228.101562 "/></clipPath><clipPath id="7ebfc15754"><path d="M 356.25 406.1875 L 171.128906 413.140625 L 164.175781 228.023438 L 349.292969 221.066406 Z M 356.25 406.1875 "/></clipPath><clipPath id="1dd04d2c58"><path d="M 97 26 L 314 26 L 314 235 L 97 235 Z M 97 26 "/></clipPath><clipPath id="92ad54d360"><path d="M 96.4375 27.472656 L 312.1875 26.085938 L 313.515625 232.945312 L 97.769531 234.332031 Z M 96.4375 27.472656 "/></clipPath><clipPath id="3513af0673"><path d="M 168.386719 33.234375 C 179.382812 29.40625 191.96875 26.859375 204.300781 26.777344 C 216.636719 26.699219 228.519531 28.738281 239.480469 32.425781 C 239.714844 32.542969 239.945312 32.539062 240.179688 32.65625 C 281.351562 47.429688 311.859375 86.9375 312.730469 132.035156 L 313.378906 232.945312 L 97.769531 234.332031 L 97.121094 133.496094 C 97.410156 88.082031 126.941406 48.1875 168.386719 33.234375 Z M 168.386719 33.234375 "/></clipPath><clipPath id="195c22220b"><path d="M 19 0 L 206 0 L 206 162 L 19 162 Z M 19 0 "/></clipPath><clipPath id="28b7a437b7"><path d="M 205.105469 160.652344 L 19.859375 161.84375 L 18.667969 -23.402344 L 203.914062 -24.59375 Z M 205.105469 160.652344 "/></clipPath><clipPath id="da13bf8044"><path d="M 18.75 -23.320312 L 203.996094 -24.511719 L 205.1875 160.734375 L 19.941406 161.925781 Z M 18.75 -23.320312 "/></clipPath><clipPath id="7926a1aa16"><path d="M 56 75 L 143 75 L 143 159 L 56 159 Z M 56 75 "/></clipPath><clipPath id="685f672af0"><path d="M 143.238281 157.753906 L 57.859375 159.679688 L 56.015625 77.820312 L 141.390625 75.894531 Z M 143.238281 157.753906 "/></clipPath><clipPath id="ca0e6253bb"><path d="M 114.726562 155.933594 C 110.398438 157.519531 105.433594 158.609375 100.550781 158.71875 C 95.671875 158.828125 90.957031 158.097656 86.59375 156.707031 C 86.5 156.664062 86.410156 156.664062 86.316406 156.621094 C 69.925781 151.035156 57.601562 135.59375 56.96875 117.75 L 56.070312 77.820312 L 141.390625 75.894531 L 142.292969 115.796875 C 142.464844 133.773438 131.03125 149.753906 114.726562 155.933594 Z M 114.726562 155.933594 "/></clipPath><clipPath id="ab771ee355"><path d="M 55 20 L 142 20 L 142 104 L 55 104 Z M 55 20 "/></clipPath><clipPath id="71a06274fe"><path d="M 54.804688 21.257812 L 140.179688 19.335938 L 142.023438 101.195312 L 56.648438 103.117188 Z M 54.804688 21.257812 "/></clipPath><clipPath id="546d5e65f9"><path d="M 83.316406 23.082031 C 87.640625 21.496094 92.605469 20.40625 97.488281 20.296875 C 102.367188 20.1875 107.085938 20.917969 111.445312 22.308594 C 111.539062 22.351562 111.632812 22.351562 111.722656 22.394531 C 128.113281 27.980469 140.4375 43.421875 141.070312 61.265625 L 141.96875 101.195312 L 56.648438 103.117188 L 55.75 63.214844 C 55.574219 45.242188 67.007812 29.261719 83.316406 23.082031 Z M 83.316406 23.082031 "/></clipPath><clipPath id="4251a13865"><path d="M 100 83 L 174 83 L 174 159 L 100 159 Z M 100 83 "/></clipPath><clipPath id="947582118c"><path d="M 100.1875 85.414062 L 173.667969 83.761719 L 175.324219 157.242188 L 101.839844 158.898438 Z M 100.1875 85.414062 "/></clipPath><clipPath id="bb2e8011ec"><path d="M 175.105469 157.035156 L 101.625 158.691406 L 99.96875 85.210938 L 173.453125 83.554688 Z M 175.105469 157.035156 "/></clipPath><clipPath id="d7f331b5cd"><path d="M 108 74 L 196 74 L 196 159 L 108 159 Z M 108 74 "/></clipPath><clipPath id="c32716945c"><path d="M 197.820312 156.671875 L 112.515625 160.695312 L 108.664062 78.902344 L 193.96875 74.882812 Z M 197.820312 156.671875 "/></clipPath><clipPath id="22868edac9"><path d="M 169.273438 155.550781 C 164.988281 157.242188 160.050781 158.453125 155.171875 158.683594 C 150.296875 158.914062 145.566406 158.296875 141.171875 157.015625 C 141.074219 156.972656 140.984375 156.976562 140.890625 156.9375 C 124.371094 151.757812 111.667969 136.621094 110.597656 118.800781 L 108.71875 78.902344 L 193.96875 74.882812 L 195.847656 114.753906 C 196.460938 132.71875 185.425781 148.972656 169.273438 155.550781 Z M 169.273438 155.550781 "/></clipPath><clipPath id="4d0e6efc1d"><path d="M 109 19 L 196 19 L 196 102 L 109 102 Z M 109 19 "/></clipPath><clipPath id="236eb45307"><path d="M 108.417969 20.050781 L 193.796875 18.128906 L 195.640625 99.988281 L 110.265625 101.910156 Z M 108.417969 20.050781 "/></clipPath><clipPath id="a9df03ee4f"><path d="M 136.929688 21.875 C 141.257812 20.289062 146.222656 19.199219 151.105469 19.089844 C 155.984375 18.980469 160.699219 19.710938 165.0625 21.101562 C 165.15625 21.144531 165.246094 21.144531 165.339844 21.1875 C 181.730469 26.769531 194.054688 42.214844 194.6875 60.054688 L 195.585938 99.988281 L 110.265625 101.910156 L 109.363281 62.007812 C 109.191406 44.03125 120.625 28.054688 136.929688 21.875 Z M 136.929688 21.875 "/></clipPath><clipPath id="a50cd76f27"><path d="M 153.277344 83.765625 L 201.199219 83.765625 L 201.199219 158.472656 L 153.277344 158.472656 Z M 153.277344 83.765625 "/></clipPath><clipPath id="c3bb836296"><path d="M 174 237 L 294 237 L 294 357 L 174 357 Z M 174 237 "/></clipPath><clipPath id="aa6a15eccd"><path d="M 185.96875 228.367188 L 302.96875 248.933594 L 282.402344 365.933594 L 165.402344 345.367188 Z M 185.96875 228.367188 "/></clipPath><clipPath id="3a9cc54dcc"><path d="M 244.46875 238.652344 C 212.160156 232.972656 181.367188 254.558594 175.6875 286.867188 C 170.007812 319.175781 191.59375 349.96875 223.902344 355.648438 C 256.210938 361.328125 287.007812 339.742188 292.6875 307.433594 C 298.363281 275.125 276.777344 244.328125 244.46875 238.652344 Z M 244.46875 238.652344 "/></clipPath></defs><g id="0f7070bc4f"><rect x="0" width="375" y="0" height="374.999991" style="fill:#ffffff;fill-opacity:1;stroke:none;"/><rect x="0" width="375" y="0" height="374.999991" style="fill:#ffffff;fill-opacity:1;stroke:none;"/><g clip-rule="nonzero" clip-path="url(#b90f8e4414)"><g clip-rule="nonzero" clip-path="url(#006fc2bc2d)"><g clip-rule="nonzero" clip-path="url(#4432762ffa)"><path style=" stroke:none;fill-rule:nonzero;fill:#000000;fill-opacity:1;" d="M 277.015625 357.832031 L 61.417969 365.933594 L 53.648438 159.214844 L 269.25 151.117188 Z M 277.015625 357.832031 "/></g></g></g><g clip-rule="nonzero" clip-path="url(#618b8ac5e0)"><g clip-rule="nonzero" clip-path="url(#e2105873e7)"><g clip-rule="nonzero" clip-path="url(#7ebfc15754)"><path style=" stroke:none;fill-rule:nonzero;fill:#ffffff;fill-opacity:1;" d="M 171.210938 413.140625 C 273.40625 409.300781 353.136719 323.34375 349.296875 221.152344 L 164.261719 228.101562 Z M 171.210938 413.140625 "/></g></g></g><g clip-rule="nonzero" clip-path="url(#1dd04d2c58)"><g clip-rule="nonzero" clip-path="url(#92ad54d360)"><g clip-rule="nonzero" clip-path="url(#3513af0673)"><path style=" stroke:none;fill-rule:nonzero;fill:#000000;fill-opacity:1;" d="M 96.4375 27.472656 L 312.1875 26.085938 L 313.515625 232.945312 L 97.769531 234.332031 Z M 96.4375 27.472656 "/></g></g></g><g clip-rule="nonzero" clip-path="url(#195c22220b)"><g clip-rule="nonzero" clip-path="url(#28b7a437b7)"><g clip-rule="nonzero" clip-path="url(#da13bf8044)"><path style=" stroke:none;fill-rule:nonzero;fill:#ffffff;fill-opacity:1;" d="M 203.914062 -24.511719 C 101.652344 -23.855469 19.285156 59.578125 19.941406 161.84375 L 205.105469 160.652344 Z M 203.914062 -24.511719 "/></g></g></g><g clip-rule="nonzero" clip-path="url(#7926a1aa16)"><g clip-rule="nonzero" clip-path="url(#685f672af0)"><g clip-rule="nonzero" clip-path="url(#ca0e6253bb)"><path style=" stroke:none;fill-rule:nonzero;fill:#34a179;fill-opacity:1;" d="M 143.238281 157.753906 L 57.859375 159.679688 L 56.015625 77.820312 L 141.390625 75.894531 Z M 143.238281 157.753906 "/></g></g></g><g clip-rule="nonzero" clip-path="url(#ab771ee355)"><g clip-rule="nonzero" clip-path="url(#71a06274fe)"><g clip-rule="nonzero" clip-path="url(#546d5e65f9)"><path style=" stroke:none;fill-rule:nonzero;fill:#34a179;fill-opacity:1;" d="M 54.804688 21.257812 L 140.179688 19.335938 L 142.023438 101.195312 L 56.648438 103.117188 Z M 54.804688 21.257812 "/></g></g></g><g clip-rule="nonzero" clip-path="url(#4251a13865)"><g clip-rule="nonzero" clip-path="url(#947582118c)"><g clip-rule="nonzero" clip-path="url(#bb2e8011ec)"><path style=" stroke:none;fill-rule:nonzero;fill:#ffffff;fill-opacity:1;" d="M 101.835938 158.6875 C 142.304688 157.773438 174.367188 124.230469 173.457031 83.765625 L 100.1875 85.417969 Z M 101.835938 158.6875 "/></g></g></g><g clip-rule="nonzero" clip-path="url(#d7f331b5cd)"><g clip-rule="nonzero" clip-path="url(#c32716945c)"><g clip-rule="nonzero" clip-path="url(#22868edac9)"><path style=" stroke:none;fill-rule:nonzero;fill:#34a179;fill-opacity:1;" d="M 197.820312 156.671875 L 112.515625 160.695312 L 108.664062 78.902344 L 193.96875 74.882812 Z M 197.820312 156.671875 "/></g></g></g><g clip-rule="nonzero" clip-path="url(#4d0e6efc1d)"><g clip-rule="nonzero" clip-path="url(#236eb45307)"><g clip-rule="nonzero" clip-path="url(#a9df03ee4f)"><path style=" stroke:none;fill-rule:nonzero;fill:#34a179;fill-opacity:1;" d="M 108.417969 20.050781 L 193.796875 18.128906 L 195.640625 99.988281 L 110.265625 101.910156 Z M 108.417969 20.050781 "/></g></g></g><g clip-rule="nonzero" clip-path="url(#a50cd76f27)"><path style=" stroke:none;fill-rule:nonzero;fill:#ffffff;fill-opacity:1;" d="M 153.277344 83.765625 L 201.199219 83.765625 L 201.199219 158.453125 L 153.277344 158.453125 Z M 153.277344 83.765625 "/></g><g clip-rule="nonzero" clip-path="url(#c3bb836296)"><g clip-rule="nonzero" clip-path="url(#aa6a15eccd)"><g clip-rule="nonzero" clip-path="url(#3a9cc54dcc)"><path style=" stroke:none;fill-rule:nonzero;fill:#46ab80;fill-opacity:1;" d="M 185.96875 228.367188 L 302.96875 248.933594 L 282.402344 365.933594 L 165.402344 345.367188 Z M 185.96875 228.367188 "/></g></g></g></g></svg>